<mxfile host="app.diagrams.net" agent="Mozilla/5.0 (Macintosh; Intel Mac OS X 10_15_7) AppleWebKit/537.36 (KHTML, like Gecko) Chrome/131.0.0.0 Safari/537.36 Edg/131.0.0.0" version="26.0.6">
  <diagram name="Page-1" id="I2RzQkV2m2pnWG8UewLT">
    <mxGraphModel dx="991" dy="853" grid="0" gridSize="10" guides="1" tooltips="1" connect="1" arrows="1" fold="1" page="1" pageScale="1" pageWidth="709" pageHeight="236" math="0" shadow="0">
      <root>
        <mxCell id="0" />
        <mxCell id="1" parent="0" />
        <mxCell id="CC86WL3dVChZbo9_PTtD-1" value="" style="endArrow=block;html=1;rounded=0;endFill=1;strokeWidth=2;" parent="1" edge="1">
          <mxGeometry relative="1" as="geometry">
            <mxPoint x="8" y="166" as="sourcePoint" />
            <mxPoint x="700" y="166" as="targetPoint" />
          </mxGeometry>
        </mxCell>
        <mxCell id="CC86WL3dVChZbo9_PTtD-9" value="Group Operation" style="swimlane;horizontal=0;whiteSpace=wrap;html=1;fillColor=#e1d5e7;strokeColor=#9673a6;" parent="1" vertex="1">
          <mxGeometry x="62" y="26" width="190" height="130" as="geometry">
            <mxRectangle x="40" y="160" width="40" height="120" as="alternateBounds" />
          </mxGeometry>
        </mxCell>
        <mxCell id="CC86WL3dVChZbo9_PTtD-13" value="" style="rounded=1;whiteSpace=wrap;html=1;fillColor=#fff2cc;strokeColor=#d6b656;" parent="CC86WL3dVChZbo9_PTtD-9" vertex="1">
          <mxGeometry x="30" y="97.5" width="150" height="25" as="geometry" />
        </mxCell>
        <mxCell id="CC86WL3dVChZbo9_PTtD-14" value="" style="rounded=1;whiteSpace=wrap;html=1;fillColor=#d5e8d4;strokeColor=#82b366;" parent="CC86WL3dVChZbo9_PTtD-9" vertex="1">
          <mxGeometry x="30" y="7.5" width="150" height="25" as="geometry" />
        </mxCell>
        <mxCell id="CC86WL3dVChZbo9_PTtD-15" value="" style="rounded=1;whiteSpace=wrap;html=1;fillColor=#d5e8d4;strokeColor=#82b366;" parent="CC86WL3dVChZbo9_PTtD-9" vertex="1">
          <mxGeometry x="30" y="37.5" width="60" height="25" as="geometry" />
        </mxCell>
        <mxCell id="CC86WL3dVChZbo9_PTtD-16" value="" style="rounded=1;whiteSpace=wrap;html=1;fillColor=#fff2cc;strokeColor=#d6b656;" parent="CC86WL3dVChZbo9_PTtD-9" vertex="1">
          <mxGeometry x="120" y="37.5" width="60" height="25" as="geometry" />
        </mxCell>
        <mxCell id="CC86WL3dVChZbo9_PTtD-17" value="" style="rounded=1;whiteSpace=wrap;html=1;fillColor=#fff2cc;strokeColor=#d6b656;" parent="CC86WL3dVChZbo9_PTtD-9" vertex="1">
          <mxGeometry x="30" y="67.5" width="60" height="25" as="geometry" />
        </mxCell>
        <mxCell id="CC86WL3dVChZbo9_PTtD-18" value="" style="rounded=1;whiteSpace=wrap;html=1;fillColor=#d5e8d4;strokeColor=#82b366;" parent="CC86WL3dVChZbo9_PTtD-9" vertex="1">
          <mxGeometry x="120" y="67.5" width="60" height="25" as="geometry" />
        </mxCell>
        <mxCell id="CC86WL3dVChZbo9_PTtD-10" value="21" style="ellipse;whiteSpace=wrap;html=1;aspect=fixed;strokeWidth=2;" parent="1" vertex="1">
          <mxGeometry x="62" y="176" width="20" height="20" as="geometry" />
        </mxCell>
        <mxCell id="CC86WL3dVChZbo9_PTtD-11" value="57" style="ellipse;whiteSpace=wrap;html=1;aspect=fixed;strokeWidth=2;" parent="1" vertex="1">
          <mxGeometry x="262" y="176" width="20" height="20" as="geometry" />
        </mxCell>
        <mxCell id="CC86WL3dVChZbo9_PTtD-19" value="Surgery" style="swimlane;horizontal=0;whiteSpace=wrap;html=1;fillColor=#e1d5e7;strokeColor=#9673a6;" parent="1" vertex="1">
          <mxGeometry x="311" y="26" width="40" height="130" as="geometry">
            <mxRectangle x="40" y="160" width="40" height="120" as="alternateBounds" />
          </mxGeometry>
        </mxCell>
        <mxCell id="CC86WL3dVChZbo9_PTtD-26" value="Meth. SA with Punish" style="swimlane;horizontal=0;whiteSpace=wrap;html=1;fillColor=#e1d5e7;strokeColor=#9673a6;" parent="1" vertex="1">
          <mxGeometry x="361" y="26" width="90" height="130" as="geometry">
            <mxRectangle x="40" y="160" width="40" height="120" as="alternateBounds" />
          </mxGeometry>
        </mxCell>
        <mxCell id="CC86WL3dVChZbo9_PTtD-32" value="&lt;div&gt;12 days&lt;/div&gt;&lt;div&gt;&lt;br&gt;&lt;/div&gt;&lt;div&gt;&lt;br&gt;&lt;/div&gt;20 days" style="text;html=1;align=center;verticalAlign=middle;resizable=0;points=[];autosize=1;strokeColor=none;fillColor=none;" parent="CC86WL3dVChZbo9_PTtD-26" vertex="1">
          <mxGeometry x="20" y="30" width="70" height="70" as="geometry" />
        </mxCell>
        <mxCell id="CC86WL3dVChZbo9_PTtD-29" value="MRI session 1" style="swimlane;horizontal=0;whiteSpace=wrap;html=1;fillColor=#b1ddf0;strokeColor=#10739e;" parent="1" vertex="1">
          <mxGeometry x="11" y="26" width="40" height="130" as="geometry">
            <mxRectangle x="40" y="160" width="40" height="120" as="alternateBounds" />
          </mxGeometry>
        </mxCell>
        <mxCell id="CC86WL3dVChZbo9_PTtD-30" value="MRI session 3" style="swimlane;horizontal=0;whiteSpace=wrap;html=1;fillColor=#f8cecc;strokeColor=#b85450;" parent="1" vertex="1">
          <mxGeometry x="460" y="26" width="40" height="130" as="geometry">
            <mxRectangle x="40" y="160" width="40" height="120" as="alternateBounds" />
          </mxGeometry>
        </mxCell>
        <mxCell id="CC86WL3dVChZbo9_PTtD-31" value="95" style="ellipse;whiteSpace=wrap;html=1;aspect=fixed;strokeWidth=2;" parent="1" vertex="1">
          <mxGeometry x="459" y="176" width="20" height="20" as="geometry" />
        </mxCell>
        <mxCell id="CC86WL3dVChZbo9_PTtD-33" value="MRI session 2" style="swimlane;horizontal=0;whiteSpace=wrap;html=1;fillColor=#b1ddf0;strokeColor=#10739e;startSize=29;" parent="1" vertex="1">
          <mxGeometry x="262" y="26" width="41" height="130" as="geometry">
            <mxRectangle x="40" y="160" width="40" height="120" as="alternateBounds" />
          </mxGeometry>
        </mxCell>
        <mxCell id="CC86WL3dVChZbo9_PTtD-34" value="Manipulate&amp;nbsp;" style="swimlane;horizontal=0;whiteSpace=wrap;html=1;fillColor=#f8cecc;strokeColor=#b85450;" parent="1" vertex="1">
          <mxGeometry x="511" y="26" width="39" height="130" as="geometry">
            <mxRectangle x="40" y="160" width="40" height="120" as="alternateBounds" />
          </mxGeometry>
        </mxCell>
        <mxCell id="CC86WL3dVChZbo9_PTtD-36" value="MRI session 4" style="swimlane;horizontal=0;whiteSpace=wrap;html=1;fillColor=#f8cecc;strokeColor=#b85450;" parent="1" vertex="1">
          <mxGeometry x="609" y="26" width="40" height="130" as="geometry">
            <mxRectangle x="40" y="160" width="40" height="120" as="alternateBounds" />
          </mxGeometry>
        </mxCell>
        <mxCell id="CC86WL3dVChZbo9_PTtD-37" value="97" style="ellipse;whiteSpace=wrap;html=1;aspect=fixed;strokeWidth=2;" parent="1" vertex="1">
          <mxGeometry x="560" y="176" width="20" height="20" as="geometry" />
        </mxCell>
        <mxCell id="CC86WL3dVChZbo9_PTtD-38" value="Meth. SA with Punish" style="swimlane;horizontal=0;whiteSpace=wrap;html=1;fillColor=#f8cecc;strokeColor=#b85450;" parent="1" vertex="1">
          <mxGeometry x="560" y="26" width="39" height="130" as="geometry">
            <mxRectangle x="40" y="160" width="40" height="120" as="alternateBounds" />
          </mxGeometry>
        </mxCell>
        <mxCell id="CC86WL3dVChZbo9_PTtD-52" value="Euthanasia" style="swimlane;horizontal=0;whiteSpace=wrap;html=1;" parent="1" vertex="1">
          <mxGeometry x="660" y="26" width="40" height="130" as="geometry">
            <mxRectangle x="40" y="160" width="40" height="120" as="alternateBounds" />
          </mxGeometry>
        </mxCell>
        <mxCell id="CC86WL3dVChZbo9_PTtD-53" value="65" style="ellipse;whiteSpace=wrap;html=1;aspect=fixed;strokeWidth=2;" parent="1" vertex="1">
          <mxGeometry x="361" y="176" width="20" height="20" as="geometry" />
        </mxCell>
        <mxCell id="CC86WL3dVChZbo9_PTtD-39" value="" style="rounded=1;whiteSpace=wrap;html=1;fillColor=#fff2cc;strokeColor=#d6b656;" parent="1" vertex="1">
          <mxGeometry x="30" y="204" width="20" height="20" as="geometry" />
        </mxCell>
        <mxCell id="CC86WL3dVChZbo9_PTtD-41" value="single" style="text;html=1;align=center;verticalAlign=bottom;resizable=0;points=[];autosize=1;strokeColor=none;fillColor=none;" parent="1" vertex="1">
          <mxGeometry x="50" y="194" width="50" height="30" as="geometry" />
        </mxCell>
        <mxCell id="CC86WL3dVChZbo9_PTtD-40" value="" style="rounded=1;whiteSpace=wrap;html=1;fillColor=#d5e8d4;strokeColor=#82b366;" parent="1" vertex="1">
          <mxGeometry x="100" y="204" width="20" height="20" as="geometry" />
        </mxCell>
        <mxCell id="CC86WL3dVChZbo9_PTtD-42" value="group" style="text;html=1;align=center;verticalAlign=bottom;resizable=0;points=[];autosize=1;strokeColor=none;fillColor=none;" parent="1" vertex="1">
          <mxGeometry x="120" y="194" width="50" height="30" as="geometry" />
        </mxCell>
        <mxCell id="CC86WL3dVChZbo9_PTtD-44" value="Phase 1" style="text;html=1;align=center;verticalAlign=bottom;resizable=0;points=[];autosize=1;strokeColor=none;fillColor=none;" parent="1" vertex="1">
          <mxGeometry x="410" y="194" width="70" height="30" as="geometry" />
        </mxCell>
        <mxCell id="CC86WL3dVChZbo9_PTtD-48" value="" style="rounded=1;whiteSpace=wrap;html=1;fillColor=#e1d5e7;strokeColor=#9673a6;" parent="1" vertex="1">
          <mxGeometry x="390" y="204" width="20" height="20" as="geometry" />
        </mxCell>
        <mxCell id="CC86WL3dVChZbo9_PTtD-46" value="Phase 2" style="text;html=1;align=center;verticalAlign=bottom;resizable=0;points=[];autosize=1;strokeColor=none;fillColor=none;" parent="1" vertex="1">
          <mxGeometry x="520" y="194" width="70" height="30" as="geometry" />
        </mxCell>
        <mxCell id="CC86WL3dVChZbo9_PTtD-49" value="" style="rounded=1;whiteSpace=wrap;html=1;fillColor=#dae8fc;strokeColor=#6c8ebf;" parent="1" vertex="1">
          <mxGeometry x="500" y="204" width="20" height="20" as="geometry" />
        </mxCell>
        <mxCell id="CC86WL3dVChZbo9_PTtD-47" value="Phase 3" style="text;html=1;align=center;verticalAlign=bottom;resizable=0;points=[];autosize=1;strokeColor=none;fillColor=none;" parent="1" vertex="1">
          <mxGeometry x="630" y="194" width="70" height="30" as="geometry" />
        </mxCell>
        <mxCell id="CC86WL3dVChZbo9_PTtD-51" value="" style="rounded=1;whiteSpace=wrap;html=1;fillColor=#f8cecc;strokeColor=#b85450;" parent="1" vertex="1">
          <mxGeometry x="610" y="204" width="20" height="20" as="geometry" />
        </mxCell>
        <mxCell id="CC86WL3dVChZbo9_PTtD-93" value="" style="endArrow=block;html=1;rounded=0;endFill=1;strokeWidth=2;" parent="1" edge="1">
          <mxGeometry relative="1" as="geometry">
            <mxPoint x="8" y="405" as="sourcePoint" />
            <mxPoint x="700" y="405" as="targetPoint" />
          </mxGeometry>
        </mxCell>
        <mxCell id="CC86WL3dVChZbo9_PTtD-94" value="Group Operation" style="swimlane;horizontal=0;whiteSpace=wrap;html=1;" parent="1" vertex="1">
          <mxGeometry x="62" y="265" width="190" height="130" as="geometry">
            <mxRectangle x="40" y="160" width="40" height="120" as="alternateBounds" />
          </mxGeometry>
        </mxCell>
        <mxCell id="CC86WL3dVChZbo9_PTtD-95" value="" style="rounded=1;whiteSpace=wrap;html=1;fillColor=#fff2cc;strokeColor=#d6b656;" parent="CC86WL3dVChZbo9_PTtD-94" vertex="1">
          <mxGeometry x="30" y="97.5" width="150" height="25" as="geometry" />
        </mxCell>
        <mxCell id="CC86WL3dVChZbo9_PTtD-96" value="" style="rounded=1;whiteSpace=wrap;html=1;fillColor=#d5e8d4;strokeColor=#82b366;" parent="CC86WL3dVChZbo9_PTtD-94" vertex="1">
          <mxGeometry x="30" y="7.5" width="150" height="25" as="geometry" />
        </mxCell>
        <mxCell id="CC86WL3dVChZbo9_PTtD-127" value="" style="rounded=1;whiteSpace=wrap;html=1;fillColor=#d5e8d4;strokeColor=#82b366;" parent="CC86WL3dVChZbo9_PTtD-94" vertex="1">
          <mxGeometry x="30" y="37" width="150" height="25" as="geometry" />
        </mxCell>
        <mxCell id="CC86WL3dVChZbo9_PTtD-128" value="" style="rounded=1;whiteSpace=wrap;html=1;fillColor=#fff2cc;strokeColor=#d6b656;" parent="CC86WL3dVChZbo9_PTtD-94" vertex="1">
          <mxGeometry x="30" y="67" width="150" height="25" as="geometry" />
        </mxCell>
        <mxCell id="CC86WL3dVChZbo9_PTtD-101" value="21" style="ellipse;whiteSpace=wrap;html=1;aspect=fixed;strokeWidth=2;" parent="1" vertex="1">
          <mxGeometry x="62" y="415" width="20" height="20" as="geometry" />
        </mxCell>
        <mxCell id="CC86WL3dVChZbo9_PTtD-103" value="57" style="ellipse;whiteSpace=wrap;html=1;aspect=fixed;strokeWidth=2;" parent="1" vertex="1">
          <mxGeometry x="259" y="415" width="20" height="20" as="geometry" />
        </mxCell>
        <mxCell id="CC86WL3dVChZbo9_PTtD-104" value="Surgery" style="swimlane;horizontal=0;whiteSpace=wrap;html=1;" parent="1" vertex="1">
          <mxGeometry x="262" y="265" width="40" height="130" as="geometry">
            <mxRectangle x="40" y="160" width="40" height="120" as="alternateBounds" />
          </mxGeometry>
        </mxCell>
        <mxCell id="CC86WL3dVChZbo9_PTtD-105" value="Social SA" style="swimlane;horizontal=0;whiteSpace=wrap;html=1;fillColor=#e1d5e7;strokeColor=#9673a6;" parent="1" vertex="1">
          <mxGeometry x="461" y="265" width="87" height="130" as="geometry">
            <mxRectangle x="40" y="160" width="40" height="120" as="alternateBounds" />
          </mxGeometry>
        </mxCell>
        <mxCell id="CC86WL3dVChZbo9_PTtD-106" value="&lt;div&gt;3 weeks&lt;/div&gt;" style="text;html=1;align=center;verticalAlign=middle;resizable=0;points=[];autosize=1;strokeColor=none;fillColor=none;" parent="CC86WL3dVChZbo9_PTtD-105" vertex="1">
          <mxGeometry x="16" y="50" width="70" height="30" as="geometry" />
        </mxCell>
        <mxCell id="CC86WL3dVChZbo9_PTtD-109" value="95" style="ellipse;whiteSpace=wrap;html=1;aspect=fixed;strokeWidth=2;" parent="1" vertex="1">
          <mxGeometry x="409" y="415" width="20" height="20" as="geometry" />
        </mxCell>
        <mxCell id="CC86WL3dVChZbo9_PTtD-115" value="Euthanasia" style="swimlane;horizontal=0;whiteSpace=wrap;html=1;" parent="1" vertex="1">
          <mxGeometry x="660" y="265" width="40" height="130" as="geometry">
            <mxRectangle x="40" y="160" width="40" height="120" as="alternateBounds" />
          </mxGeometry>
        </mxCell>
        <mxCell id="CC86WL3dVChZbo9_PTtD-117" value="" style="rounded=1;whiteSpace=wrap;html=1;fillColor=#fff2cc;strokeColor=#d6b656;" parent="1" vertex="1">
          <mxGeometry x="30" y="442" width="20" height="20" as="geometry" />
        </mxCell>
        <mxCell id="CC86WL3dVChZbo9_PTtD-118" value="single" style="text;html=1;align=center;verticalAlign=bottom;resizable=0;points=[];autosize=1;strokeColor=none;fillColor=none;" parent="1" vertex="1">
          <mxGeometry x="50" y="432" width="50" height="30" as="geometry" />
        </mxCell>
        <mxCell id="CC86WL3dVChZbo9_PTtD-119" value="" style="rounded=1;whiteSpace=wrap;html=1;fillColor=#d5e8d4;strokeColor=#82b366;" parent="1" vertex="1">
          <mxGeometry x="100" y="442" width="20" height="20" as="geometry" />
        </mxCell>
        <mxCell id="CC86WL3dVChZbo9_PTtD-120" value="group" style="text;html=1;align=center;verticalAlign=bottom;resizable=0;points=[];autosize=1;strokeColor=none;fillColor=none;" parent="1" vertex="1">
          <mxGeometry x="120" y="432" width="50" height="30" as="geometry" />
        </mxCell>
        <mxCell id="CC86WL3dVChZbo9_PTtD-121" value="Phase 1" style="text;html=1;align=center;verticalAlign=bottom;resizable=0;points=[];autosize=1;strokeColor=none;fillColor=none;" parent="1" vertex="1">
          <mxGeometry x="410" y="432" width="70" height="30" as="geometry" />
        </mxCell>
        <mxCell id="CC86WL3dVChZbo9_PTtD-122" value="" style="rounded=1;whiteSpace=wrap;html=1;fillColor=#e1d5e7;strokeColor=#9673a6;" parent="1" vertex="1">
          <mxGeometry x="390" y="442" width="20" height="20" as="geometry" />
        </mxCell>
        <mxCell id="CC86WL3dVChZbo9_PTtD-123" value="Phase 2" style="text;html=1;align=center;verticalAlign=bottom;resizable=0;points=[];autosize=1;strokeColor=none;fillColor=none;" parent="1" vertex="1">
          <mxGeometry x="520" y="432" width="70" height="30" as="geometry" />
        </mxCell>
        <mxCell id="CC86WL3dVChZbo9_PTtD-124" value="" style="rounded=1;whiteSpace=wrap;html=1;fillColor=#dae8fc;strokeColor=#6c8ebf;" parent="1" vertex="1">
          <mxGeometry x="500" y="442" width="20" height="20" as="geometry" />
        </mxCell>
        <mxCell id="CC86WL3dVChZbo9_PTtD-129" value="42" style="ellipse;whiteSpace=wrap;html=1;aspect=fixed;strokeWidth=2;" parent="1" vertex="1">
          <mxGeometry x="180" y="176" width="20" height="20" as="geometry" />
        </mxCell>
        <mxCell id="CC86WL3dVChZbo9_PTtD-130" value="36" style="ellipse;whiteSpace=wrap;html=1;aspect=fixed;strokeWidth=2;" parent="1" vertex="1">
          <mxGeometry x="150" y="176" width="20" height="20" as="geometry" />
        </mxCell>
        <mxCell id="CC86WL3dVChZbo9_PTtD-131" value="MRI session 1" style="swimlane;horizontal=0;whiteSpace=wrap;html=1;fillColor=#dae8fc;strokeColor=#6c8ebf;" parent="1" vertex="1">
          <mxGeometry x="409" y="265" width="41" height="130" as="geometry">
            <mxRectangle x="40" y="160" width="40" height="120" as="alternateBounds" />
          </mxGeometry>
        </mxCell>
        <mxCell id="CC86WL3dVChZbo9_PTtD-134" value="" style="endArrow=block;html=1;rounded=0;endFill=1;strokeWidth=2;" parent="1" edge="1">
          <mxGeometry relative="1" as="geometry">
            <mxPoint x="8" y="643" as="sourcePoint" />
            <mxPoint x="700" y="643" as="targetPoint" />
          </mxGeometry>
        </mxCell>
        <mxCell id="CC86WL3dVChZbo9_PTtD-135" value="Group Operation" style="swimlane;horizontal=0;whiteSpace=wrap;html=1;fillColor=#e1d5e7;strokeColor=#9673a6;" parent="1" vertex="1">
          <mxGeometry x="62" y="503" width="190" height="130" as="geometry">
            <mxRectangle x="40" y="160" width="40" height="120" as="alternateBounds" />
          </mxGeometry>
        </mxCell>
        <mxCell id="CC86WL3dVChZbo9_PTtD-136" value="" style="rounded=1;whiteSpace=wrap;html=1;fillColor=#d5e8d4;strokeColor=#82b366;" parent="CC86WL3dVChZbo9_PTtD-135" vertex="1">
          <mxGeometry x="30" y="97.5" width="150" height="25" as="geometry" />
        </mxCell>
        <mxCell id="CC86WL3dVChZbo9_PTtD-137" value="" style="rounded=1;whiteSpace=wrap;html=1;fillColor=#d5e8d4;strokeColor=#82b366;" parent="CC86WL3dVChZbo9_PTtD-135" vertex="1">
          <mxGeometry x="30" y="7.5" width="150" height="25" as="geometry" />
        </mxCell>
        <mxCell id="CC86WL3dVChZbo9_PTtD-138" value="" style="rounded=1;whiteSpace=wrap;html=1;fillColor=#d5e8d4;strokeColor=#82b366;" parent="CC86WL3dVChZbo9_PTtD-135" vertex="1">
          <mxGeometry x="30" y="37" width="150" height="25" as="geometry" />
        </mxCell>
        <mxCell id="CC86WL3dVChZbo9_PTtD-139" value="" style="rounded=1;whiteSpace=wrap;html=1;fillColor=#d5e8d4;strokeColor=#82b366;" parent="CC86WL3dVChZbo9_PTtD-135" vertex="1">
          <mxGeometry x="30" y="67" width="150" height="25" as="geometry" />
        </mxCell>
        <mxCell id="CC86WL3dVChZbo9_PTtD-188" value="" style="group" parent="CC86WL3dVChZbo9_PTtD-135" vertex="1" connectable="0">
          <mxGeometry x="30" y="37" width="145" height="25" as="geometry" />
        </mxCell>
        <mxCell id="CC86WL3dVChZbo9_PTtD-171" value="" style="verticalLabelPosition=bottom;verticalAlign=top;html=1;shape=mxgraph.basic.pie;startAngle=0.7531826745504864;endAngle=0;fillColor=#a20025;fontColor=#ffffff;strokeColor=#6F0000;" parent="CC86WL3dVChZbo9_PTtD-188" vertex="1">
          <mxGeometry x="30" width="25" height="25" as="geometry" />
        </mxCell>
        <mxCell id="CC86WL3dVChZbo9_PTtD-174" value="" style="verticalLabelPosition=bottom;verticalAlign=top;html=1;shape=mxgraph.basic.pie;startAngle=0.7531826745504864;endAngle=0;fillColor=#a20025;fontColor=#ffffff;strokeColor=#6F0000;" parent="CC86WL3dVChZbo9_PTtD-188" vertex="1">
          <mxGeometry x="60" width="25" height="25" as="geometry" />
        </mxCell>
        <mxCell id="CC86WL3dVChZbo9_PTtD-175" value="" style="verticalLabelPosition=bottom;verticalAlign=top;html=1;shape=mxgraph.basic.pie;startAngle=0.7531826745504864;endAngle=0;fillColor=#a20025;fontColor=#ffffff;strokeColor=#6F0000;" parent="CC86WL3dVChZbo9_PTtD-188" vertex="1">
          <mxGeometry x="90" width="25" height="25" as="geometry" />
        </mxCell>
        <mxCell id="CC86WL3dVChZbo9_PTtD-176" value="" style="verticalLabelPosition=bottom;verticalAlign=top;html=1;shape=mxgraph.basic.pie;startAngle=0.7531826745504864;endAngle=0;fillColor=#a20025;fontColor=#ffffff;strokeColor=#6F0000;" parent="CC86WL3dVChZbo9_PTtD-188" vertex="1">
          <mxGeometry x="120" width="25" height="25" as="geometry" />
        </mxCell>
        <mxCell id="CC86WL3dVChZbo9_PTtD-177" value="" style="verticalLabelPosition=bottom;verticalAlign=top;html=1;shape=mxgraph.basic.pie;startAngle=0.7531826745504864;endAngle=0;fillColor=#a20025;fontColor=#ffffff;strokeColor=#6F0000;" parent="CC86WL3dVChZbo9_PTtD-188" vertex="1">
          <mxGeometry width="25" height="25" as="geometry" />
        </mxCell>
        <mxCell id="CC86WL3dVChZbo9_PTtD-189" value="" style="group" parent="CC86WL3dVChZbo9_PTtD-135" vertex="1" connectable="0">
          <mxGeometry x="30" y="67" width="143" height="25" as="geometry" />
        </mxCell>
        <mxCell id="CC86WL3dVChZbo9_PTtD-172" value="" style="verticalLabelPosition=bottom;verticalAlign=top;html=1;shape=mxgraph.basic.pie;startAngle=0.5;endAngle=0;fillColor=#a20025;fontColor=#ffffff;strokeColor=#6F0000;" parent="CC86WL3dVChZbo9_PTtD-189" vertex="1">
          <mxGeometry width="25" height="25" as="geometry" />
        </mxCell>
        <mxCell id="CC86WL3dVChZbo9_PTtD-178" value="" style="verticalLabelPosition=bottom;verticalAlign=top;html=1;shape=mxgraph.basic.pie;startAngle=0.5;endAngle=0;fillColor=#a20025;fontColor=#ffffff;strokeColor=#6F0000;" parent="CC86WL3dVChZbo9_PTtD-189" vertex="1">
          <mxGeometry x="30" width="25" height="25" as="geometry" />
        </mxCell>
        <mxCell id="CC86WL3dVChZbo9_PTtD-179" value="" style="verticalLabelPosition=bottom;verticalAlign=top;html=1;shape=mxgraph.basic.pie;startAngle=0.5;endAngle=0;fillColor=#a20025;fontColor=#ffffff;strokeColor=#6F0000;" parent="CC86WL3dVChZbo9_PTtD-189" vertex="1">
          <mxGeometry x="59" width="25" height="25" as="geometry" />
        </mxCell>
        <mxCell id="CC86WL3dVChZbo9_PTtD-180" value="" style="verticalLabelPosition=bottom;verticalAlign=top;html=1;shape=mxgraph.basic.pie;startAngle=0.5;endAngle=0;fillColor=#a20025;fontColor=#ffffff;strokeColor=#6F0000;" parent="CC86WL3dVChZbo9_PTtD-189" vertex="1">
          <mxGeometry x="89" width="25" height="25" as="geometry" />
        </mxCell>
        <mxCell id="CC86WL3dVChZbo9_PTtD-181" value="" style="verticalLabelPosition=bottom;verticalAlign=top;html=1;shape=mxgraph.basic.pie;startAngle=0.5;endAngle=0;fillColor=#a20025;fontColor=#ffffff;strokeColor=#6F0000;" parent="CC86WL3dVChZbo9_PTtD-189" vertex="1">
          <mxGeometry x="118" width="25" height="25" as="geometry" />
        </mxCell>
        <mxCell id="CC86WL3dVChZbo9_PTtD-190" value="" style="group" parent="CC86WL3dVChZbo9_PTtD-135" vertex="1" connectable="0">
          <mxGeometry x="31" y="97.5" width="143" height="25" as="geometry" />
        </mxCell>
        <mxCell id="CC86WL3dVChZbo9_PTtD-173" value="" style="verticalLabelPosition=bottom;verticalAlign=top;html=1;shape=mxgraph.basic.pie;startAngle=0.25;endAngle=0;fillColor=#a20025;fontColor=#ffffff;strokeColor=#6F0000;" parent="CC86WL3dVChZbo9_PTtD-190" vertex="1">
          <mxGeometry width="25" height="25" as="geometry" />
        </mxCell>
        <mxCell id="CC86WL3dVChZbo9_PTtD-184" value="" style="verticalLabelPosition=bottom;verticalAlign=top;html=1;shape=mxgraph.basic.pie;startAngle=0.25;endAngle=0;fillColor=#a20025;fontColor=#ffffff;strokeColor=#6F0000;" parent="CC86WL3dVChZbo9_PTtD-190" vertex="1">
          <mxGeometry x="30" width="25" height="25" as="geometry" />
        </mxCell>
        <mxCell id="CC86WL3dVChZbo9_PTtD-185" value="" style="verticalLabelPosition=bottom;verticalAlign=top;html=1;shape=mxgraph.basic.pie;startAngle=0.25;endAngle=0;fillColor=#a20025;fontColor=#ffffff;strokeColor=#6F0000;fontStyle=0" parent="CC86WL3dVChZbo9_PTtD-190" vertex="1">
          <mxGeometry x="118" width="25" height="25" as="geometry" />
        </mxCell>
        <mxCell id="CC86WL3dVChZbo9_PTtD-186" value="" style="verticalLabelPosition=bottom;verticalAlign=top;html=1;shape=mxgraph.basic.pie;startAngle=0.25;endAngle=0;fillColor=#a20025;fontColor=#ffffff;strokeColor=#6F0000;" parent="CC86WL3dVChZbo9_PTtD-190" vertex="1">
          <mxGeometry x="59" width="25" height="25" as="geometry" />
        </mxCell>
        <mxCell id="CC86WL3dVChZbo9_PTtD-187" value="" style="verticalLabelPosition=bottom;verticalAlign=top;html=1;shape=mxgraph.basic.pie;startAngle=0.25;endAngle=0;fillColor=#a20025;fontColor=#ffffff;strokeColor=#6F0000;" parent="CC86WL3dVChZbo9_PTtD-190" vertex="1">
          <mxGeometry x="89" width="25" height="25" as="geometry" />
        </mxCell>
        <mxCell id="CC86WL3dVChZbo9_PTtD-140" value="21" style="ellipse;whiteSpace=wrap;html=1;aspect=fixed;strokeWidth=2;" parent="1" vertex="1">
          <mxGeometry x="62" y="653" width="20" height="20" as="geometry" />
        </mxCell>
        <mxCell id="CC86WL3dVChZbo9_PTtD-141" value="57" style="ellipse;whiteSpace=wrap;html=1;aspect=fixed;strokeWidth=2;" parent="1" vertex="1">
          <mxGeometry x="262" y="653" width="20" height="20" as="geometry" />
        </mxCell>
        <mxCell id="CC86WL3dVChZbo9_PTtD-142" value="64" style="ellipse;whiteSpace=wrap;html=1;aspect=fixed;strokeWidth=2;" parent="1" vertex="1">
          <mxGeometry x="361" y="653" width="20" height="20" as="geometry" />
        </mxCell>
        <mxCell id="CC86WL3dVChZbo9_PTtD-146" value="94" style="ellipse;whiteSpace=wrap;html=1;aspect=fixed;strokeWidth=2;" parent="1" vertex="1">
          <mxGeometry x="463" y="653" width="20" height="20" as="geometry" />
        </mxCell>
        <mxCell id="CC86WL3dVChZbo9_PTtD-147" value="MRI session 1" style="swimlane;horizontal=0;whiteSpace=wrap;html=1;fillColor=#dae8fc;strokeColor=#6c8ebf;" parent="1" vertex="1">
          <mxGeometry x="262" y="503" width="41" height="130" as="geometry">
            <mxRectangle x="40" y="160" width="40" height="120" as="alternateBounds" />
          </mxGeometry>
        </mxCell>
        <mxCell id="CC86WL3dVChZbo9_PTtD-149" value="96" style="ellipse;whiteSpace=wrap;html=1;aspect=fixed;strokeWidth=2;" parent="1" vertex="1">
          <mxGeometry x="561" y="653" width="20" height="20" as="geometry" />
        </mxCell>
        <mxCell id="CC86WL3dVChZbo9_PTtD-150" value="Meth. SA with Punish" style="swimlane;horizontal=0;whiteSpace=wrap;html=1;fillColor=#f8cecc;strokeColor=#b85450;" parent="1" vertex="1">
          <mxGeometry x="561" y="503" width="39" height="130" as="geometry">
            <mxRectangle x="40" y="160" width="40" height="120" as="alternateBounds" />
          </mxGeometry>
        </mxCell>
        <mxCell id="CC86WL3dVChZbo9_PTtD-151" value="Euthanasia" style="swimlane;horizontal=0;whiteSpace=wrap;html=1;" parent="1" vertex="1">
          <mxGeometry x="660" y="503" width="40" height="130" as="geometry">
            <mxRectangle x="40" y="160" width="40" height="120" as="alternateBounds" />
          </mxGeometry>
        </mxCell>
        <mxCell id="CC86WL3dVChZbo9_PTtD-152" value="" style="rounded=1;whiteSpace=wrap;html=1;fillColor=#fff2cc;strokeColor=#d6b656;" parent="1" vertex="1">
          <mxGeometry x="30" y="680" width="20" height="20" as="geometry" />
        </mxCell>
        <mxCell id="CC86WL3dVChZbo9_PTtD-153" value="single" style="text;html=1;align=center;verticalAlign=bottom;resizable=0;points=[];autosize=1;strokeColor=none;fillColor=none;" parent="1" vertex="1">
          <mxGeometry x="50" y="670" width="50" height="30" as="geometry" />
        </mxCell>
        <mxCell id="CC86WL3dVChZbo9_PTtD-154" value="" style="rounded=1;whiteSpace=wrap;html=1;fillColor=#d5e8d4;strokeColor=#82b366;" parent="1" vertex="1">
          <mxGeometry x="100" y="680" width="20" height="20" as="geometry" />
        </mxCell>
        <mxCell id="CC86WL3dVChZbo9_PTtD-155" value="group" style="text;html=1;align=center;verticalAlign=bottom;resizable=0;points=[];autosize=1;strokeColor=none;fillColor=none;" parent="1" vertex="1">
          <mxGeometry x="120" y="670" width="50" height="30" as="geometry" />
        </mxCell>
        <mxCell id="CC86WL3dVChZbo9_PTtD-156" value="Phase 1" style="text;html=1;align=center;verticalAlign=bottom;resizable=0;points=[];autosize=1;strokeColor=none;fillColor=none;" parent="1" vertex="1">
          <mxGeometry x="410" y="670" width="70" height="30" as="geometry" />
        </mxCell>
        <mxCell id="CC86WL3dVChZbo9_PTtD-157" value="" style="rounded=1;whiteSpace=wrap;html=1;fillColor=#e1d5e7;strokeColor=#9673a6;" parent="1" vertex="1">
          <mxGeometry x="390" y="680" width="20" height="20" as="geometry" />
        </mxCell>
        <mxCell id="CC86WL3dVChZbo9_PTtD-158" value="Phase 2" style="text;html=1;align=center;verticalAlign=bottom;resizable=0;points=[];autosize=1;strokeColor=none;fillColor=none;" parent="1" vertex="1">
          <mxGeometry x="520" y="670" width="70" height="30" as="geometry" />
        </mxCell>
        <mxCell id="CC86WL3dVChZbo9_PTtD-159" value="" style="rounded=1;whiteSpace=wrap;html=1;fillColor=#dae8fc;strokeColor=#6c8ebf;" parent="1" vertex="1">
          <mxGeometry x="500" y="680" width="20" height="20" as="geometry" />
        </mxCell>
        <mxCell id="CC86WL3dVChZbo9_PTtD-160" value="MRI session 2" style="swimlane;horizontal=0;whiteSpace=wrap;html=1;fillColor=#dae8fc;strokeColor=#6c8ebf;" parent="1" vertex="1">
          <mxGeometry x="463" y="503" width="41" height="130" as="geometry">
            <mxRectangle x="40" y="160" width="40" height="120" as="alternateBounds" />
          </mxGeometry>
        </mxCell>
        <mxCell id="CC86WL3dVChZbo9_PTtD-162" value="Meth. SA with Punish" style="swimlane;horizontal=0;whiteSpace=wrap;html=1;fillColor=#e1d5e7;strokeColor=#9673a6;" parent="1" vertex="1">
          <mxGeometry x="560" y="265" width="40" height="130" as="geometry">
            <mxRectangle x="40" y="160" width="40" height="120" as="alternateBounds" />
          </mxGeometry>
        </mxCell>
        <mxCell id="CC86WL3dVChZbo9_PTtD-164" value="117" style="ellipse;whiteSpace=wrap;html=1;aspect=fixed;strokeWidth=2;" parent="1" vertex="1">
          <mxGeometry x="559" y="415" width="20" height="20" as="geometry" />
        </mxCell>
        <mxCell id="CC86WL3dVChZbo9_PTtD-165" value="MRI session 2" style="swimlane;horizontal=0;whiteSpace=wrap;html=1;fillColor=#dae8fc;strokeColor=#6c8ebf;" parent="1" vertex="1">
          <mxGeometry x="610" y="265" width="41" height="130" as="geometry">
            <mxRectangle x="40" y="160" width="40" height="120" as="alternateBounds" />
          </mxGeometry>
        </mxCell>
        <mxCell id="CC86WL3dVChZbo9_PTtD-166" value="Meth. SA with Punish" style="swimlane;horizontal=0;whiteSpace=wrap;html=1;" parent="1" vertex="1">
          <mxGeometry x="311" y="265" width="90" height="130" as="geometry">
            <mxRectangle x="40" y="160" width="40" height="120" as="alternateBounds" />
          </mxGeometry>
        </mxCell>
        <mxCell id="CC86WL3dVChZbo9_PTtD-167" value="&lt;div&gt;12 days&lt;/div&gt;&lt;div&gt;&lt;br&gt;&lt;/div&gt;&lt;div&gt;&lt;br&gt;&lt;/div&gt;20 days" style="text;html=1;align=center;verticalAlign=middle;resizable=0;points=[];autosize=1;strokeColor=none;fillColor=none;" parent="CC86WL3dVChZbo9_PTtD-166" vertex="1">
          <mxGeometry x="20" y="30" width="70" height="70" as="geometry" />
        </mxCell>
        <mxCell id="CC86WL3dVChZbo9_PTtD-168" value="65" style="ellipse;whiteSpace=wrap;html=1;aspect=fixed;strokeWidth=2;" parent="1" vertex="1">
          <mxGeometry x="313" y="415" width="20" height="20" as="geometry" />
        </mxCell>
        <mxCell id="CC86WL3dVChZbo9_PTtD-191" value="Surgery" style="swimlane;horizontal=0;whiteSpace=wrap;html=1;fillColor=#e1d5e7;strokeColor=#9673a6;" parent="1" vertex="1">
          <mxGeometry x="311" y="503" width="40" height="130" as="geometry">
            <mxRectangle x="40" y="160" width="40" height="120" as="alternateBounds" />
          </mxGeometry>
        </mxCell>
        <mxCell id="CC86WL3dVChZbo9_PTtD-193" value="Meth. SA with Punish" style="swimlane;horizontal=0;whiteSpace=wrap;html=1;fillColor=#e1d5e7;strokeColor=#9673a6;" parent="1" vertex="1">
          <mxGeometry x="361" y="503" width="90" height="130" as="geometry">
            <mxRectangle x="40" y="160" width="40" height="120" as="alternateBounds" />
          </mxGeometry>
        </mxCell>
        <mxCell id="CC86WL3dVChZbo9_PTtD-194" value="&lt;div&gt;12 days&lt;/div&gt;&lt;div&gt;&lt;br&gt;&lt;/div&gt;&lt;div&gt;&lt;br&gt;&lt;/div&gt;20 days" style="text;html=1;align=center;verticalAlign=middle;resizable=0;points=[];autosize=1;strokeColor=none;fillColor=none;" parent="CC86WL3dVChZbo9_PTtD-193" vertex="1">
          <mxGeometry x="20" y="30" width="70" height="70" as="geometry" />
        </mxCell>
        <mxCell id="CC86WL3dVChZbo9_PTtD-195" value="Manipulate&amp;nbsp;" style="swimlane;horizontal=0;whiteSpace=wrap;html=1;fillColor=#f8cecc;strokeColor=#b85450;" parent="1" vertex="1">
          <mxGeometry x="511" y="502" width="39" height="130" as="geometry">
            <mxRectangle x="40" y="160" width="40" height="120" as="alternateBounds" />
          </mxGeometry>
        </mxCell>
        <mxCell id="CC86WL3dVChZbo9_PTtD-196" value="Phase 3" style="text;html=1;align=center;verticalAlign=bottom;resizable=0;points=[];autosize=1;strokeColor=none;fillColor=none;" parent="1" vertex="1">
          <mxGeometry x="630" y="670" width="70" height="30" as="geometry" />
        </mxCell>
        <mxCell id="CC86WL3dVChZbo9_PTtD-197" value="" style="rounded=1;whiteSpace=wrap;html=1;fillColor=#f8cecc;strokeColor=#b85450;" parent="1" vertex="1">
          <mxGeometry x="610" y="680" width="20" height="20" as="geometry" />
        </mxCell>
        <mxCell id="fP5M8shgC96ckiccFGSR-3" value="PND" style="text;html=1;align=center;verticalAlign=middle;resizable=0;points=[];autosize=1;strokeColor=none;fillColor=none;fontStyle=1" vertex="1" parent="1">
          <mxGeometry y="173" width="43" height="26" as="geometry" />
        </mxCell>
        <mxCell id="fP5M8shgC96ckiccFGSR-4" value="PND" style="text;html=1;align=center;verticalAlign=middle;resizable=0;points=[];autosize=1;strokeColor=none;fillColor=none;fontStyle=1" vertex="1" parent="1">
          <mxGeometry y="412" width="43" height="26" as="geometry" />
        </mxCell>
        <mxCell id="fP5M8shgC96ckiccFGSR-5" value="PND" style="text;html=1;align=center;verticalAlign=middle;resizable=0;points=[];autosize=1;strokeColor=none;fillColor=none;fontStyle=1" vertex="1" parent="1">
          <mxGeometry y="650" width="43" height="26" as="geometry" />
        </mxCell>
        <mxCell id="fP5M8shgC96ckiccFGSR-6" value="Social Isolation" style="text;html=1;align=center;verticalAlign=middle;resizable=0;points=[];autosize=1;strokeColor=none;fillColor=none;fontStyle=1" vertex="1" parent="1">
          <mxGeometry x="1" width="99" height="26" as="geometry" />
        </mxCell>
        <mxCell id="fP5M8shgC96ckiccFGSR-7" value="Social Reward" style="text;html=1;align=center;verticalAlign=middle;resizable=0;points=[];autosize=1;strokeColor=none;fillColor=none;fontStyle=1" vertex="1" parent="1">
          <mxGeometry x="2" y="236" width="95" height="26" as="geometry" />
        </mxCell>
        <mxCell id="fP5M8shgC96ckiccFGSR-8" value="Social Conformity" style="text;html=1;align=center;verticalAlign=middle;resizable=0;points=[];autosize=1;strokeColor=none;fillColor=none;fontStyle=1" vertex="1" parent="1">
          <mxGeometry y="472" width="112" height="26" as="geometry" />
        </mxCell>
      </root>
    </mxGraphModel>
  </diagram>
</mxfile>
